<svg width="126" height="126" viewBox="0 0 126 126" fill="none" xmlns="http://www.w3.org/2000/svg">
<rect width="126" height="126" fill="black"/>
<path d="M84.4757 54.4652C84.4757 45.3461 76.9144 37.9257 67.615 37.9257C56.5223 37.9257 47.4861 46.7867 47.4861 57.6794C47.4861 70.6582 58.2465 81.2179 71.4719 81.2179C87.2039 81.2179 100 68.6672 100 53.2217C100 34.9087 84.815 20 66.1402 20C44.0032 20 26 37.6675 26 59.3918C26 84.5408 46.3921 105.103 71.8112 106V84.5815H71.4788C56.3631 84.5815 44.0655 72.5133 44.0655 57.6794C44.0655 44.9384 54.632 34.5621 67.622 34.5621C78.8116 34.5621 87.9102 43.491 87.9102 54.4652C87.9102 63.8494 80.2034 71.4668 70.6756 71.6095C70.6271 71.6095 70.5925 71.6367 70.544 71.6367C70.5302 71.6367 70.5163 71.6299 70.5025 71.6299C70.4748 71.6299 70.4402 71.6367 70.4125 71.6367V71.6095C65.427 71.5348 61.4039 67.5732 61.4039 62.667C61.4039 57.7609 65.4962 53.6974 70.544 53.6974C75.5918 53.6974 79.6841 57.7133 79.6841 62.667C79.6841 63.564 79.4141 64.3794 79.1648 65.1949C82.3777 62.6602 84.4826 58.821 84.4826 54.4652H84.4757Z" fill="white"/>
</svg>
