<svg xmlns="http://www.w3.org/2000/svg" width="340" height="360" viewBox="32 17 34 36" fill="none">
  <mask id="path-1-inside-1_500_5660" fill="white">
    <path d="M52.9307 33.0152C52.9307 30.8944 51.2587 29.1688 49.2023 29.1688C46.7494 29.1688 44.7512 31.2295 44.7512 33.7626C44.7512 36.781 47.1307 39.2367 50.0552 39.2367C53.534 39.2367 56.3636 36.318 56.3636 32.726C56.3636 28.4671 53.0058 25 48.8762 25C43.981 25 40 29.1087 40 34.1609C40 40.0095 44.5093 44.7914 50.1302 45V40.019H50.0567C46.7142 40.019 43.9948 37.2124 43.9948 33.7626C43.9948 30.7996 46.3314 28.3865 49.2039 28.3865C51.6782 28.3865 53.6902 30.463 53.6902 33.0152C53.6902 35.1975 51.986 36.969 49.8791 37.0022C48.7633 37.0022 47.8289 36.0736 47.8289 34.9226C47.8289 33.7816 48.7338 32.8366 49.85 32.8366C50.9663 32.8366 51.8712 33.7705 51.8712 34.9226C51.8712 35.1312 51.8115 35.3208 51.7563 35.5104C52.4668 34.921 52.9323 34.0281 52.9323 33.0152H52.9307Z"/>
  </mask>
  <path d="M52.9307 33.0152C52.9307 30.8944 51.2587 29.1688 49.2023 29.1688C46.7494 29.1688 44.7512 31.2295 44.7512 33.7626C44.7512 36.781 47.1307 39.2367 50.0552 39.2367C53.534 39.2367 56.3636 36.318 56.3636 32.726C56.3636 28.4671 53.0058 25 48.8762 25C43.981 25 40 29.1087 40 34.1609C40 40.0095 44.5093 44.7914 50.1302 45V40.019H50.0567C46.7142 40.019 43.9948 37.2124 43.9948 33.7626C43.9948 30.7996 46.3314 28.3865 49.2039 28.3865C51.6782 28.3865 53.6902 30.463 53.6902 33.0152C53.6902 35.1975 51.986 36.969 49.8791 37.0022C48.7633 37.0022 47.8289 36.0736 47.8289 34.9226C47.8289 33.7816 48.7338 32.8366 49.85 32.8366C50.9663 32.8366 51.8712 33.7705 51.8712 34.9226C51.8712 35.1312 51.8115 35.3208 51.7563 35.5104C52.4668 34.921 52.9323 34.0281 52.9323 33.0152H52.9307Z" fill="url(#paint0_linear_500_5660)"/>
  <path d="M52.9307 33.0152H46.8671V39.0788H52.9307V33.0152ZM50.1302 45L49.9054 51.0594L56.1938 51.2928V45H50.1302ZM50.1302 40.019H56.1938V33.9554H50.1302V40.019ZM49.8791 37.0022V43.0658H49.9269L49.9746 43.0651L49.8791 37.0022ZM51.7563 35.5104L45.9337 33.8179L40.4169 52.7971L55.628 40.177L51.7563 35.5104ZM52.9323 33.0152H58.9959V26.9516H52.9323V33.0152ZM52.9307 33.0152H58.9944C58.9944 27.7258 54.785 23.1052 49.2023 23.1052V29.1688V35.2324C47.7325 35.2324 46.8671 34.0631 46.8671 33.0152H52.9307ZM49.2023 29.1688V23.1052C43.2229 23.1052 38.6876 28.0611 38.6876 33.7626H44.7512H50.8148C50.8148 34.3978 50.2759 35.2324 49.2023 35.2324V29.1688ZM44.7512 33.7626H38.6876C38.6876 39.948 43.6028 45.3003 50.0552 45.3003V39.2367V33.1731C50.3351 33.1731 50.5517 33.299 50.6613 33.4121C50.7679 33.5222 50.8148 33.6556 50.8148 33.7626H44.7512ZM50.0552 39.2367V45.3003C57.0609 45.3003 62.4272 39.4859 62.4272 32.726H56.3636H50.3C50.3 32.9067 50.2338 33.0319 50.1596 33.1085C50.1227 33.1466 50.0927 33.163 50.0801 33.1684C50.0724 33.1718 50.0685 33.1731 50.0552 33.1731V39.2367ZM56.3636 32.726H62.4272C62.4272 25.3001 56.5336 18.9364 48.8762 18.9364V25V31.0636C49.4779 31.0636 50.3 31.6341 50.3 32.726H56.3636ZM48.8762 25V18.9364C40.4532 18.9364 33.9364 25.9417 33.9364 34.1609H40H46.0636C46.0636 32.2757 47.5089 31.0636 48.8762 31.0636V25ZM40 34.1609H33.9364C33.9364 43.1139 40.8708 50.7242 49.9054 51.0594L50.1302 45L50.3551 38.9406C48.1478 38.8586 46.0636 36.9051 46.0636 34.1609H40ZM50.1302 45H56.1938V40.019H50.1302H44.0666V45H50.1302ZM50.1302 40.019V33.9554H50.0567V40.019V46.0826H50.1302V40.019ZM50.0567 40.019V33.9554C50.0782 33.9554 50.1071 33.9614 50.1288 33.9709C50.1457 33.9783 50.142 33.9804 50.1271 33.965C50.1121 33.9496 50.0946 33.9252 50.0813 33.8928C50.0695 33.8641 50.0584 33.8233 50.0584 33.7626H43.9948H37.9312C37.9312 40.3794 43.1863 46.0826 50.0567 46.0826V40.019ZM43.9948 33.7626H50.0584C50.0584 33.8976 50.0006 34.0552 49.8773 34.1824C49.751 34.3129 49.5107 34.4502 49.2039 34.4502V28.3865V22.3229C42.8024 22.3229 37.9312 27.6338 37.9312 33.7626H43.9948ZM49.2039 28.3865V34.4502C48.1517 34.4502 47.6266 33.6314 47.6266 33.0152H53.6902H59.7538C59.7538 27.2947 55.2048 22.3229 49.2039 22.3229V28.3865ZM53.6902 33.0152H47.6266C47.6266 32.0424 48.425 30.9607 49.7836 30.9394L49.8791 37.0022L49.9746 43.0651C55.547 42.9773 59.7538 38.3527 59.7538 33.0152H53.6902ZM47.8289 34.9226H53.8925C53.8925 36.9274 52.2822 38.9002 49.85 38.9002V32.8366V26.773C45.1854 26.773 41.7653 30.6359 41.7653 34.9226H47.8289ZM49.85 32.8366V38.9002C47.4384 38.9002 45.8076 36.9375 45.8076 34.9226H51.8712H57.9348C57.9348 30.6036 54.4941 26.773 49.85 26.773V32.8366ZM51.8712 34.9226H45.8076C45.8076 34.4464 45.8764 34.0809 45.9181 33.8953C45.9385 33.8044 45.9557 33.7428 45.9583 33.7338C45.9597 33.7287 45.9594 33.7298 45.955 33.7452C45.9527 33.7529 45.9503 33.761 45.9466 33.7738C45.9432 33.7854 45.9386 33.8012 45.9337 33.8179L51.7563 35.5104L57.579 37.2029C57.5802 37.1988 57.6126 37.0886 57.6368 37.002C57.666 36.8976 57.7085 36.74 57.7508 36.5519C57.8361 36.1719 57.9348 35.6073 57.9348 34.9226H51.8712ZM51.7563 35.5104L55.628 40.177C57.6433 38.5051 58.9959 35.9383 58.9959 33.0152H52.9323H46.8687C46.8687 32.1179 47.2903 31.3369 47.8846 30.8438L51.7563 35.5104ZM52.9323 33.0152V26.9516H52.9307V33.0152V39.0788H52.9323V33.0152ZM49.8791 37.0022V30.9386C52.157 30.9386 53.8925 32.7698 53.8925 34.9226H47.8289H41.7653C41.7653 39.3774 45.3697 43.0658 49.8791 43.0658V37.0022Z" fill="#3c3c43" fill-opacity="0.4" mask="url(#path-1-inside-1_500_5660)"/>
  <defs>
    <linearGradient id="paint0_linear_500_5660" x1="48.1818" y1="25" x2="48.1818" y2="45" gradientUnits="userSpaceOnUse">
      <stop stop-color="#3c3c43"/>
      <stop offset="1" stop-color="#3c3c43"/>
    </linearGradient>
  </defs>
</svg>
